<svg width="54" viewBox="0 0 54 48" fill="none" xmlns="http://www.w3.org/2000/svg">
    <path fill-rule="evenodd" clip-rule="evenodd"
        d="M33.3608 38.72H20.5008C20.2227 38.7065 19.9447 38.7477 19.6826 38.8413C19.4205 38.9349 19.1795 39.079 18.9735 39.2654C18.7675 39.4519 18.6004 39.6769 18.4818 39.9278C18.3633 40.1786 18.2956 40.4502 18.2826 40.7271C18.2569 41.2858 18.4545 41.832 18.8324 42.2459C19.2102 42.6598 19.7374 42.9078 20.2985 42.9355H20.5008C21.3786 42.912 22.2501 43.0899 23.0478 43.4554C23.8456 43.8209 24.5482 44.3642 25.1013 45.0432C25.8029 45.9008 26.2649 46.9273 26.441 48.0193H27.4269C27.5998 46.918 28.0596 45.8811 28.7603 45.0118C29.3156 44.3353 30.0186 43.7938 30.8159 43.4285C31.6131 43.0633 32.4835 42.8839 33.3608 42.904C33.6389 42.9193 33.9173 42.8798 34.18 42.7878C34.4428 42.6957 34.6847 42.553 34.8919 42.3677C35.0992 42.1824 35.2676 41.9583 35.3877 41.708C35.5077 41.4578 35.577 41.1865 35.5916 40.9096C35.6069 40.6335 35.5674 40.3571 35.4753 40.0963C35.3832 39.8355 35.2403 39.5953 35.0547 39.3896C34.8692 39.1838 34.6448 39.0166 34.3942 38.8974C34.1437 38.7781 33.872 38.7093 33.5946 38.6948C33.5161 38.6969 33.438 38.7053 33.3608 38.72V38.72ZM33.9928 31.9689H19.18C18.892 31.9622 18.6055 32.0121 18.3369 32.1157C18.0683 32.2193 17.8228 32.3745 17.6145 32.5726C17.4061 32.7707 17.239 33.0077 17.1227 33.2701C17.0064 33.5325 16.9431 33.8151 16.9366 34.1018C16.9264 34.68 17.1456 35.2388 17.5467 35.657C17.9478 36.0752 18.4984 36.3189 19.0789 36.3354H34.0054C34.2934 36.3438 34.5802 36.2956 34.8495 36.1936C35.1188 36.0915 35.3652 35.9376 35.5748 35.7407C35.7843 35.5438 35.9528 35.3077 36.0706 35.0459C36.1884 34.7842 36.2532 34.5018 36.2614 34.2151C36.2707 33.9281 36.2229 33.6422 36.1207 33.3737C36.0185 33.1053 35.864 32.8596 35.6661 32.6508C35.4681 32.4421 35.2306 32.2743 34.9673 32.1573C34.704 32.0403 34.42 31.9762 34.1318 31.9689H33.9928ZM30.7067 29.9367C31.3117 29.9367 31.8919 29.6974 32.3198 29.2714C32.7476 28.8455 32.988 28.2677 32.988 27.6653C32.9888 27.3668 32.9304 27.0711 32.816 26.7952C32.7017 26.5192 32.5337 26.2685 32.3217 26.0574C32.1097 25.8463 31.8578 25.6791 31.5807 25.5652C31.3035 25.4514 31.0065 25.3932 30.7067 25.394H23.0349C22.4298 25.394 21.8495 25.6333 21.4217 26.0593C20.9939 26.4852 20.7535 27.063 20.7535 27.6653C20.7535 28.2677 20.9939 28.8455 21.4217 29.2714C21.8495 29.6974 22.4298 29.9367 23.0349 29.9367H30.7067ZM48.9193 8.93472C47.3437 7.98542 45.5404 7.47626 43.6989 7.46076C41.8574 7.44526 40.0457 7.92398 38.4543 8.84663L35.3957 10.602C34.937 8.72093 33.8687 7.04261 32.356 5.82656C32.4255 5.71331 32.4951 5.60637 32.5709 5.49941C32.7929 5.17716 33.0563 4.88525 33.3545 4.63115C33.4212 4.55801 33.4977 4.49449 33.582 4.4424C33.6425 4.40558 33.6996 4.36346 33.7526 4.31656C33.8733 4.2319 34 4.1562 34.1318 4.09006C34.3327 3.97724 34.5444 3.88451 34.7637 3.81322L35.1429 3.66223C35.2521 3.61313 35.3577 3.55635 35.4588 3.49233C35.8793 3.21848 36.1734 2.78966 36.2765 2.30007C36.3796 1.81048 36.2832 1.30015 36.0086 0.881231C35.8792 0.675344 35.7101 0.497052 35.5111 0.356659C35.312 0.216267 35.087 0.116551 34.849 0.0633067C34.611 0.010062 34.3647 0.00433243 34.1245 0.0464482C33.8842 0.088564 33.6547 0.177715 33.4493 0.308695V0.308695L33.0764 0.554084C32.7429 0.766004 32.4298 1.0082 32.1411 1.27762C31.9285 1.44609 31.7318 1.63353 31.5534 1.83759L31.4144 1.98859C31.266 2.14004 31.1287 2.30197 31.0037 2.47307C30.6064 2.97546 30.2771 3.52754 30.0242 4.11522C29.9799 4.22218 29.9357 4.32914 29.8978 4.4361C27.9484 3.71889 25.8057 3.71889 23.8564 4.4361C23.8247 4.33141 23.7823 4.23023 23.73 4.13411C23.4977 3.55779 23.1873 3.01582 22.8074 2.52338C22.6799 2.3333 22.5338 2.15629 22.3713 1.99489L22.2386 1.85019C22.0621 1.65228 21.8674 1.47111 21.6572 1.30907C21.3638 1.03992 21.0465 0.797773 20.7093 0.585535L20.3554 0.352742C20.2527 0.283829 20.1425 0.226821 20.0268 0.182852C19.5689 -0.00250668 19.0565 -0.00250668 18.5986 0.182852C18.1374 0.379574 17.7734 0.750308 17.5862 1.21379C17.399 1.67728 17.4041 2.19571 17.6002 2.65552C17.6976 2.88564 17.8399 3.09422 18.0189 3.26918C18.1979 3.44414 18.41 3.58201 18.6428 3.67478L19.0662 3.84467C19.2858 3.91785 19.4975 4.01271 19.6982 4.12781C19.8155 4.18136 19.9259 4.24898 20.0268 4.32915L20.1911 4.4487C20.2869 4.50533 20.3741 4.57521 20.4502 4.6563C20.7475 4.90581 21.0053 5.19852 21.2149 5.52457C21.2844 5.62524 21.3539 5.7322 21.4171 5.83916C19.9532 7.01356 18.9002 8.61914 18.409 10.4259L15.6917 8.85922C14.1026 7.93458 12.2925 7.45358 10.4519 7.46686C8.61137 7.48015 6.80849 7.98724 5.23302 8.93472C2.79058 10.3943 1.03036 12.7599 0.339466 15.5114C-0.351426 18.2629 0.0835698 21.1749 1.54878 23.6072C2.46964 25.1368 3.76002 26.4128 5.30252 27.3193C6.90221 28.2424 8.71966 28.7253 10.5686 28.7187C12.4175 28.7121 14.2314 28.2161 15.8244 27.2816L27.073 20.6186L38.3216 27.2816C39.9095 28.2357 41.7272 28.7442 43.5819 28.7531C45.4365 28.7619 47.259 28.2708 48.8561 27.3319C51.3097 25.8901 53.0876 23.5369 53.7986 20.79C54.5097 18.0432 54.0957 15.1276 52.6477 12.6846C51.7373 11.1489 50.4556 9.86413 48.9193 8.9473V8.93472ZM49.9304 18.3724C49.9408 19.4397 49.6667 20.4906 49.136 21.4179C48.6053 22.3453 47.8371 23.1159 46.9097 23.6512C46.0001 24.1915 44.9608 24.4768 43.9016 24.4768C42.8425 24.4768 41.8031 24.1915 40.8936 23.6512L31.8694 18.2843L40.9757 13.0621C41.8839 12.5331 42.9187 12.2579 43.9709 12.2657C45.0231 12.2734 46.0537 12.5638 46.9539 13.1062C47.8707 13.6434 48.6287 14.4122 49.1514 15.3347C49.674 16.2572 49.9427 17.3007 49.9304 18.3598V18.3724ZM13.7579 13.0621L22.8642 18.2843L13.8401 23.6323C12.9317 24.1727 11.8933 24.4581 10.8352 24.4581C9.77704 24.4581 8.73864 24.1727 7.8303 23.6323C6.4299 22.799 5.4186 21.4468 5.01818 19.8722C4.61776 18.2976 4.86091 16.6292 5.69432 15.2328C6.21481 14.3623 6.94168 13.6321 7.81132 13.1062C8.71082 12.565 9.74024 12.2753 10.7912 12.2676C11.8421 12.2598 12.8757 12.5343 13.7832 13.0621H13.7579Z"
        fill="#7AE05C"/>
</svg>